<svg width="1137" height="443" viewBox="0 0 1137 443" fill="none" xmlns="http://www.w3.org/2000/svg">
<path d="M11.3 44.9C11.3 26.3 26.4 11.2 45 11.2C63.6 11.2 78.7 26.3 78.7 44.9C78.7 63.5 63.6 78.6 45 78.6C26.4 78.6 11.3 63.5 11.3 44.9ZM44.9 0C20.1 0 0 20.1 0 44.9V202.1C0.1 226.9 20.2 246.9 44.9 246.9C69.7 246.9 89.8 226.8 89.8 202V44.9C89.7 20.1 69.6 0.0999908 44.9 0.0999908V0ZM541.3 323C561.7 323 578.3 339.6 578.3 360C578.3 380.4 561.7 397 541.3 397C520.9 397 504.3 380.4 504.3 360C504.3 339.6 520.8 323 541.3 323ZM590.6 360C590.6 332.8 568.5 310.7 541.3 310.7H257C229.8 310.8 207.8 332.8 207.8 360C207.8 387.2 229.9 409.3 257.1 409.3H541.3C568.5 409.2 590.5 387.1 590.5 359.9H590.6V360Z" fill="#00D29B"/>
<path d="M501.307 397.8C502.507 400.1 502.507 402.3 501.407 404.4C500.307 406.5 498.507 407.5 496.007 407.5H484.707C481.607 407.5 479.407 407 477.807 405.9C476.307 404.8 475.007 403.2 473.907 400.8L457.407 367.5L447.407 385.5V400.1C447.407 402.1 446.707 403.8 445.207 405.3C443.707 406.8 442.007 407.5 440.007 407.5H428.307C426.307 407.5 424.607 406.8 423.107 405.3C421.607 403.8 420.907 402.1 420.907 400.1V297.1C420.907 295.1 421.607 293.4 423.107 291.9C424.607 290.4 426.307 289.7 428.307 289.7H440.107C442.107 289.7 443.807 290.4 445.307 291.9C446.807 293.4 447.507 295.1 447.507 297.1V333.8L468.407 296.2C469.607 294 470.907 292.3 472.407 291.3C473.907 290.2 476.207 289.7 479.307 289.7H490.607C493.107 289.7 494.807 290.8 495.807 292.9C496.807 295 496.707 297.2 495.507 299.4L472.707 340.4L501.307 397.8ZM673.507 279.5C675.007 281 675.707 282.7 675.707 284.7V400C675.707 402 675.007 403.7 673.507 405.2C672.007 406.7 670.307 407.4 668.307 407.4H656.707C654.707 407.4 653.007 406.7 651.507 405.2C650.807 404.5 650.307 403.7 649.907 402.9C648.807 403.9 647.707 404.8 646.507 405.6C642.507 408 637.707 409.2 632.107 409.2C622.407 409.2 615.007 405.8 610.007 399C605.007 392.2 602.507 382.2 602.507 369.1V350.5C602.507 337.4 605.007 327.4 610.007 320.6C615.007 313.8 622.307 310.4 632.107 310.4C637.707 310.4 642.507 311.6 646.507 314C647.507 314.6 648.407 315.3 649.307 316V284.7C649.307 282.7 650.007 281 651.507 279.5C653.007 278 654.707 277.3 656.707 277.3H668.307C670.307 277.3 672.007 278.1 673.507 279.5ZM649.307 375.8V343.8C649.307 342.2 648.907 340.7 648.207 339.4C647.407 338.1 646.307 337.1 644.707 336.4C643.107 335.7 641.207 335.3 639.007 335.3C635.607 335.3 633.107 336.3 631.407 338.2C629.807 340.1 628.907 343.2 628.907 347.3V372.3C628.907 376.4 629.707 379.4 631.407 381.4C633.007 383.3 635.607 384.3 639.007 384.3C641.207 384.3 643.107 383.9 644.707 383.2C646.307 382.5 647.507 381.5 648.207 380.2C648.907 378.9 649.307 377.4 649.307 375.8ZM766.307 383.7H745.607V284.7C745.607 282.7 744.907 281 743.407 279.5C741.907 278 740.207 277.3 738.207 277.3H738.007H726.607H705.707C703.707 277.3 702.007 278 700.507 279.5C699.007 281 698.307 282.7 698.307 284.7V293.7C698.307 295.7 699.007 297.4 700.507 298.9C702.007 300.4 703.707 301.1 705.707 301.1H719.207V383.7H698.507C696.507 383.7 694.807 384.4 693.307 385.9C691.807 387.4 691.107 389.1 691.107 391.1V400.1C691.107 402.1 691.807 403.8 693.307 405.3C694.807 406.8 696.507 407.5 698.507 407.5H726.607H738.207H766.307C768.307 407.5 770.007 406.8 771.507 405.3C773.007 403.8 773.707 402.1 773.707 400.1V391.1C773.707 389.1 773.007 387.4 771.507 385.9C770.007 384.4 768.307 383.7 766.307 383.7ZM852.307 313H840.707C838.707 313 837.007 313.7 835.507 315.2C834.007 316.7 833.307 318.4 833.307 320.4V371C833.307 375.8 832.607 379.2 831.307 381.2C830.007 383.2 827.807 384.2 824.907 384.2C821.107 384.2 818.507 383.3 817.007 381.7C815.507 380 814.707 376.7 814.707 371.9V320.4C814.707 318.4 814.007 316.7 812.507 315.2C811.007 313.7 809.307 313 807.307 313H795.707C793.707 313 792.007 313.7 790.507 315.2C789.007 316.7 788.307 318.4 788.307 320.4V371.9C788.307 384.6 790.707 393.9 795.507 400C800.307 406.1 807.807 409.1 818.007 409.1C824.907 409.1 830.107 406.5 833.407 401.3C833.707 402.7 834.307 404 835.507 405.1C837.007 406.6 838.707 407.3 840.707 407.3H852.307C854.307 407.3 856.007 406.6 857.507 405.1C859.007 403.6 859.707 401.9 859.707 399.9V320.3C859.707 318.3 859.007 316.6 857.507 315.1C856.007 313.8 854.207 313 852.307 313ZM950.807 313H939.207C936.407 313 934.307 313.6 933.007 314.8C931.707 316 930.707 317.8 930.107 320.2L916.707 371.9L903.007 320.2C902.407 317.9 901.407 316.1 900.107 314.8C898.807 313.6 896.707 313 893.907 313H882.307C880.107 313 878.307 313.9 877.007 315.6C875.707 317.4 875.407 319.3 876.107 321.4L903.707 409.2L903.007 411.2C902.407 412.8 901.607 414.2 900.507 415.3C899.407 416.4 898.007 417.3 896.307 417.8C894.607 418.4 892.607 418.7 890.207 418.7H886.707C884.707 418.7 883.007 419.4 881.507 420.9C880.007 422.4 879.307 424.1 879.307 426.1V435.1C879.307 437.1 880.007 438.8 881.507 440.3C883.007 441.8 884.707 442.5 886.707 442.5H898.107C904.807 442.5 910.207 441.1 914.307 438.3C918.407 435.5 921.507 432 923.607 427.8C925.707 423.6 927.807 418.3 929.707 411.9L957.107 321.4C957.707 319.3 957.307 317.4 956.007 315.6C954.807 313.9 953.007 313 950.807 313ZM1034.21 320.4C1040.31 327.1 1043.31 337.1 1043.31 350.5V369.1C1043.31 382.5 1040.21 392.5 1034.21 399.2C1028.11 405.9 1019.01 409.2 1006.81 409.2C994.607 409.2 985.507 405.9 979.407 399.2C973.307 392.5 970.307 382.5 970.307 369.1V350.5C970.307 337.1 973.307 327.1 979.407 320.4C985.507 313.7 994.607 310.4 1006.81 310.4C1018.91 310.4 1028.11 313.7 1034.21 320.4ZM1016.91 347.3C1016.91 342.4 1016.11 338.9 1014.61 337C1013.11 335.1 1010.41 334.1 1006.71 334.1C1002.91 334.1 1000.31 335.1 998.807 337C997.307 338.9 996.507 342.4 996.507 347.3V372.3C996.507 377.2 997.307 380.7 998.807 382.6C1000.31 384.5 1003.01 385.5 1006.71 385.5C1010.41 385.5 1013.11 384.5 1014.61 382.6C1016.11 380.7 1016.91 377.2 1016.91 372.3V347.3ZM1134.71 315.2C1133.21 313.7 1131.51 313 1129.51 313H1121.11C1117.01 313 1113.31 313.9 1109.91 315.5C1107.81 316.6 1105.91 318.5 1104.21 321.2V320.3C1104.21 318.3 1103.51 316.6 1102.01 315.1C1100.51 313.6 1098.81 312.9 1096.81 312.9H1096.61H1085.21H1066.41C1064.41 312.9 1062.71 313.6 1061.21 315.1C1059.71 316.6 1059.01 318.3 1059.01 320.3V329.3C1059.01 331.3 1059.71 333 1061.21 334.5C1062.71 336 1064.41 336.7 1066.41 336.7H1077.81V383.7H1065.71C1063.71 383.7 1062.01 384.4 1060.51 385.9C1059.01 387.4 1058.31 389.1 1058.31 391.1V400.1C1058.31 402.1 1059.01 403.8 1060.51 405.3C1062.01 406.8 1063.71 407.5 1065.71 407.5H1085.21H1096.81H1123.31C1125.31 407.5 1127.01 406.8 1128.51 405.3C1130.01 403.8 1130.71 402.1 1130.71 400.1V391.1C1130.71 389.1 1130.01 387.4 1128.51 385.9C1127.01 384.4 1125.31 383.7 1123.31 383.7H1104.11V347.5C1104.41 344.5 1105.11 342.3 1106.21 340.9C1107.71 339 1110.41 338 1114.11 338H1129.41C1131.41 338 1133.11 337.3 1134.61 335.8C1136.11 334.3 1136.81 332.6 1136.81 330.6V320.4C1136.91 318.4 1136.21 316.7 1134.71 315.2ZM385.807 213.9L375.807 206.5C372.207 203.8 369.207 202.6 367.007 202.8C364.707 203 361.207 204.4 356.507 207.1L355.907 207.4C353.407 208.7 350.907 209.7 348.407 210.2C345.807 210.8 343.307 211.1 340.907 211.1C334.807 211.1 330.207 209.3 327.107 205.7C324.007 202.1 322.407 196.3 322.407 188.3V132.2H355.407C358.607 132.2 361.407 131 363.807 128.6C366.207 126.2 367.407 123.4 367.407 120.2V105.7C367.407 102.5 366.207 99.7004 363.807 97.3004C361.407 94.9004 358.607 93.7004 355.407 93.7004H322.407V67.8004C322.407 64.6004 321.207 61.8004 318.807 59.4004C316.407 57.0004 313.607 55.8004 310.407 55.8004H291.607C288.407 55.8004 285.607 57.0004 283.207 59.4004C280.807 61.8004 279.607 64.6004 279.607 67.8004V93.7004H269.107C265.907 93.7004 263.107 94.9004 260.707 97.3004C258.307 99.7004 257.107 102.5 257.107 105.7V120.2C257.107 123.4 258.307 126.2 260.707 128.6C263.107 131 265.907 132.2 269.107 132.2H279.607V184.6C279.607 206 284.607 222.2 294.707 233.1C304.807 244 320.107 249.5 340.807 249.5C351.607 249.5 361.007 247.8 368.807 244.4C376.707 241 383.107 236.2 388.007 230.2C389.907 227.9 390.607 225.1 390.007 221.7C389.507 218.2 388.007 215.6 385.807 213.9ZM539.307 212.6C540.207 213.6 540.607 215.1 540.607 217V235.8C540.607 238.8 539.607 241.2 537.507 242.9C535.407 244.8 532.707 246.1 529.207 246.9C525.807 247.7 522.307 248 518.707 248C512.107 248 505.707 246 499.607 242C496.107 239.7 493.607 236.8 492.107 233.4C489.207 237.6 485.807 241.1 481.607 243.5C475.107 247.4 467.407 249.3 458.207 249.3C442.407 249.3 430.507 243.8 422.507 232.8C414.407 221.8 410.407 205.7 410.407 184.4V154.2C410.407 132.9 414.407 116.8 422.507 105.8C430.607 94.8004 442.507 89.3004 458.207 89.3004C467.307 89.3004 475.107 91.2004 481.607 95.1004C483.607 96.3004 485.507 97.9004 487.207 99.5004C487.507 98.0004 488.207 96.8004 489.407 95.8004C491.207 94.3004 493.607 93.5004 496.707 93.5004H517.807C521.007 93.5004 523.807 94.7004 526.207 97.1004C528.607 99.5004 529.807 102.3 529.807 105.5V206.3C529.807 207.8 530.107 209 530.807 209.7C531.507 210.5 532.407 210.8 533.507 210.8H535.807C537.207 211 538.407 211.6 539.307 212.6ZM486.207 143.6C486.207 140.9 485.607 138.6 484.307 136.5C483.107 134.4 481.207 132.8 478.607 131.7C476.007 130.6 473.007 130 469.307 130C463.807 130 459.707 131.6 457.107 134.7C454.407 137.8 453.107 142.7 453.107 149.4V189.7C453.107 196.3 454.407 201.2 457.107 204.4C459.807 207.5 463.807 209.1 469.307 209.1C472.907 209.1 476.007 208.5 478.607 207.4C481.207 206.3 483.107 204.7 484.307 202.6C485.507 200.5 486.207 198.1 486.207 195.5V143.6ZM641.307 89.2004C626.707 89.2004 615.407 94.0004 607.507 103.6C607.107 101.3 606.007 99.2004 604.207 97.3004C601.807 94.9004 599.007 93.7004 595.807 93.7004H577.007C573.807 93.7004 571.007 94.9004 568.607 97.3004C566.207 99.7004 565.007 102.5 565.007 105.7V234.7C565.007 237.9 566.207 240.7 568.607 243.1C571.007 245.5 573.807 246.7 577.007 246.7H595.807C599.007 246.7 601.807 245.5 604.207 243.1C606.607 240.7 607.807 237.9 607.807 234.7V151.3C607.807 143.3 609.007 137.8 611.507 134.6C614.007 131.5 618.207 129.9 624.307 129.9C630.407 129.9 634.607 131.5 637.107 134.6C639.607 137.7 640.807 143.3 640.807 151.3V234.7C640.807 237.9 642.007 240.7 644.407 243.1C646.807 245.5 649.607 246.7 652.807 246.7H671.607C674.807 246.7 677.607 245.5 680.007 243.1C682.407 240.7 683.607 237.9 683.607 234.7V151.3C683.607 131 680.007 115.6 672.907 105C665.707 94.5004 655.207 89.2004 641.307 89.2004ZM820.507 106C828.607 117 832.607 133.1 832.607 154.4V184.6C832.607 205.9 828.607 222 820.507 233C812.407 244 800.507 249.5 784.807 249.5C775.707 249.5 767.907 247.6 761.407 243.7C759.407 242.5 757.607 241 755.907 239.4C755.307 240.7 754.507 242 753.307 243.1C750.907 245.5 748.107 246.7 744.907 246.7H726.107C722.907 246.7 720.107 245.5 717.707 243.1C715.307 240.7 714.107 237.9 714.107 234.7V47.9004C714.107 44.7004 715.307 41.9004 717.707 39.5004C720.107 37.1004 722.907 35.9004 726.107 35.9004H744.907C748.107 35.9004 750.907 37.1004 753.307 39.5004C755.707 41.9004 756.907 44.7004 756.907 47.9004V98.6004C758.307 97.4004 759.807 96.3004 761.507 95.3004C768.007 91.4004 775.707 89.5004 784.907 89.5004C800.607 89.5004 812.507 95.0004 820.507 106ZM789.907 149.3C789.907 142.7 788.607 137.8 785.907 134.6C783.207 131.5 779.207 129.9 773.707 129.9C770.107 129.9 767.007 130.5 764.407 131.6C761.807 132.7 759.907 134.4 758.707 136.4C757.507 138.5 756.807 140.9 756.807 143.5V195.3C756.807 198 757.407 200.3 758.707 202.4C759.907 204.5 761.807 206.1 764.407 207.2C767.007 208.3 770.007 208.9 773.707 208.9C779.207 208.9 783.307 207.3 785.907 204.2C788.607 201.1 789.907 196.2 789.907 189.5V149.3ZM965.607 93.7004H946.807C943.607 93.7004 940.807 94.9004 938.407 97.3004C936.007 99.7004 934.807 102.5 934.807 105.7V187.7C934.807 195.5 933.707 201 931.507 204.2C929.307 207.4 925.807 209 921.107 209C915.007 209 910.807 207.6 908.307 204.9C905.807 202.1 904.607 196.9 904.607 189.1V105.7C904.607 102.5 903.407 99.7004 901.007 97.3004C898.607 94.9004 895.807 93.7004 892.607 93.7004H873.807C870.607 93.7004 867.807 94.9004 865.407 97.3004C863.007 99.7004 861.807 102.5 861.807 105.7V189.1C861.807 209.6 865.707 224.8 873.507 234.7C881.307 244.6 893.407 249.5 909.907 249.5C921.107 249.5 929.407 245.3 934.907 236.9C935.307 239.2 936.407 241.3 938.307 243.1C940.707 245.5 943.507 246.7 946.707 246.7H965.507C968.707 246.7 971.507 245.5 973.907 243.1C976.307 240.7 977.507 237.9 977.507 234.7V105.7C977.507 102.5 976.307 99.7004 973.907 97.3004C971.607 94.9004 968.807 93.7004 965.607 93.7004ZM1133.41 211.8C1131.01 209.4 1128.21 208.2 1125.01 208.2H1091.41V47.9004C1091.41 44.7004 1090.21 41.9004 1087.81 39.5004C1085.41 37.1004 1082.61 35.9004 1079.41 35.9004H1079.11H1060.61H1026.71C1023.51 35.9004 1020.71 37.1004 1018.31 39.5004C1015.91 41.9004 1014.71 44.7004 1014.71 47.9004V62.4004C1014.71 65.6004 1015.91 68.4004 1018.31 70.8004C1020.71 73.2004 1023.51 74.4004 1026.71 74.4004H1048.61V208.2H1015.01C1011.81 208.2 1009.01 209.4 1006.61 211.8C1004.21 214.2 1003.01 217 1003.01 220.2V234.7C1003.01 237.9 1004.21 240.7 1006.61 243.1C1009.01 245.5 1011.81 246.7 1015.01 246.7H1060.61H1079.41H1124.91C1128.11 246.7 1130.91 245.5 1133.31 243.1C1135.71 240.7 1136.91 237.9 1136.91 234.7V220.2C1136.91 216.9 1135.71 214.1 1133.41 211.8ZM202.607 153L176.707 146.5C172.307 145.4 169.007 143.9 166.607 142.2C164.207 140.5 163.007 138.3 163.007 135.7C163.007 132.7 164.007 130.5 166.107 129.3C168.207 128.1 171.307 127.4 175.507 127.4C182.107 127.4 189.407 128.8 197.407 131.7L198.807 132.3C203.007 133.6 206.407 134 209.207 133.4C211.907 132.8 214.507 131 216.707 128L225.807 115.8C227.507 113.5 228.107 110.8 227.507 107.5C226.907 104.3 225.307 101.8 222.707 100.1C217.607 96.9004 211.007 94.3004 203.107 92.4004C195.107 90.5004 186.607 89.6004 177.507 89.6004C159.307 89.6004 145.207 93.4004 135.207 101C125.207 108.6 120.307 120.7 120.307 137.4C120.307 151.4 123.807 162.3 130.807 170C137.807 177.7 146.607 183 157.307 185.8L185.207 192.9C188.607 193.9 191.107 195.1 192.707 196.6C194.307 198.1 195.107 200.1 195.107 202.6C195.107 205.8 193.807 208.2 191.307 209.6C188.707 211 184.907 211.7 179.807 211.7C175.107 211.7 170.607 211 166.407 209.7C162.207 208.4 158.007 206.5 153.907 204C149.507 201.5 146.007 200.2 143.407 200.2C140.707 200.1 137.607 201.4 134.007 204L121.807 212.8C119.107 214.7 117.807 217.3 117.707 220.6C117.607 223.9 118.507 226.6 120.407 228.7C127.007 235.5 135.907 240.7 147.007 244.2C158.107 247.7 169.207 249.5 180.207 249.5C199.607 249.5 214.007 245.6 223.607 237.8C233.207 230 238.007 217.7 238.007 200.8C238.007 186.4 234.807 175.5 228.307 168.1C221.807 160.7 213.307 155.6 202.607 153Z" fill="#1A0E40"/>
</svg>
