<svg width="500" height="500" viewBox="0 0 500 500" fill="none" xmlns="http://www.w3.org/2000/svg">
<path d="M91.1692 68.464C91.1692 45.964 70.8352 28.212 47.5402 32.585C32.8882 35.335 21.2112 47.301 18.6452 61.987C17.0412 71.166 18.9352 79.801 23.1222 86.928H23.1022L23.2062 87.065C24.6082 89.427 26.3632 91.115 28.1372 93.597L49.3562 121.705C51.9962 125.203 57.2502 125.202 59.8902 121.705L80.7562 94.061C80.7562 94.061 84.6512 89.417 86.0642 87.029L86.1392 86.929H86.1242C89.3112 81.505 91.1692 75.209 91.1692 68.464ZM54.6242 84.376C45.7422 84.376 38.5412 77.175 38.5412 68.293C38.5412 59.411 45.7422 52.21 54.6242 52.21C63.5072 52.21 70.7072 59.411 70.7072 68.293C70.7072 77.175 63.5072 84.376 54.6242 84.376Z" fill="#F5F5F5"/>
<path d="M485.366 290.123C485.366 280.204 476.402 272.378 466.132 274.306C459.673 275.518 454.525 280.794 453.394 287.268C452.687 291.315 453.522 295.121 455.368 298.263H455.359L455.405 298.324C456.023 299.365 456.797 300.109 457.579 301.203L466.933 313.594C468.097 315.136 470.413 315.136 471.577 313.594L480.776 301.407C480.776 301.407 482.493 299.36 483.116 298.307L483.149 298.263H483.142C484.546 295.872 485.366 293.096 485.366 290.123ZM469.255 297.138C465.339 297.138 462.165 293.964 462.165 290.048C462.165 286.132 465.339 282.958 469.255 282.958C473.171 282.958 476.345 286.132 476.345 290.048C476.345 293.964 473.171 297.138 469.255 297.138Z" fill="#F5F5F5"/>
<path d="M173.347 417.931C173.351 417.925 173.453 417.891 173.649 417.832C173.866 417.769 174.152 417.685 174.517 417.578C175.301 417.354 176.42 417.035 177.861 416.624C180.788 415.802 185.022 414.614 190.365 413.114L190.253 413.315C189.613 411.172 188.895 408.769 188.125 406.194L188.09 406.076L188.19 405.993C191.323 403.379 194.406 399.939 196.909 395.731C198.156 393.622 199.148 391.264 199.829 388.741C200.541 386.216 200.637 383.472 200.301 380.74C199.45 375.291 196.678 369.744 192.083 365.742C187.548 361.71 181.492 359.039 175.06 358.415C170.265 357.948 165.49 359.051 161.388 361.15C157.231 363.161 153.743 366.203 151.204 369.72C148.641 373.246 147.291 377.371 146.823 381.362C146.764 382.368 146.605 383.361 146.628 384.348C146.656 385.336 146.684 386.312 146.712 387.276C146.894 389.196 147.202 391.059 147.712 392.819C148.238 394.572 148.922 396.223 149.746 397.739C150.586 399.248 151.572 400.608 152.63 401.828C154.76 404.264 157.21 406.084 159.594 407.448C164.397 410.164 168.842 411.264 171.997 411.736L172.069 411.747L172.083 411.812C172.499 413.795 172.817 415.309 173.037 416.354C173.138 416.853 173.217 417.24 173.274 417.525C173.327 417.787 173.351 417.924 173.347 417.931C173.343 417.938 173.309 417.816 173.246 417.565C173.179 417.288 173.087 416.912 172.969 416.427C172.721 415.375 172.363 413.85 171.893 411.853L171.978 411.929C168.781 411.503 164.307 410.447 159.428 407.74C157.008 406.38 154.513 404.553 152.333 402.089C151.251 400.855 150.24 399.476 149.377 397.943C148.53 396.403 147.826 394.725 147.283 392.943C146.757 391.154 146.436 389.262 146.244 387.313C146.213 386.334 146.181 385.343 146.148 384.341C146.121 383.339 146.278 382.328 146.336 381.304C146.799 377.241 148.168 373.023 150.778 369.417C153.363 365.82 156.917 362.716 161.147 360.664C165.311 358.525 170.208 357.39 175.109 357.868C181.665 358.505 187.816 361.223 192.439 365.341C194.754 367.394 196.681 369.814 198.051 372.454C198.448 373.086 198.707 373.781 199.005 374.452C199.299 375.125 199.605 375.789 199.791 376.493C200.002 377.187 200.23 377.872 200.422 378.561C200.548 379.268 200.673 379.971 200.798 380.669C201.136 383.472 201.025 386.285 200.291 388.858C199.589 391.429 198.568 393.823 197.296 395.955C194.736 400.213 191.623 403.651 188.423 406.288L188.487 406.087C189.238 408.668 189.939 411.076 190.564 413.224L190.61 413.383L190.452 413.425C185.048 414.861 180.765 416 177.806 416.787C176.371 417.162 175.258 417.452 174.477 417.656C174.12 417.746 173.84 417.817 173.628 417.871C173.437 417.918 173.343 417.938 173.347 417.931Z" fill="#E0E0E0"/>
<path d="M191.951 417.944C191.991 418.09 188.099 419.282 183.259 420.607C178.417 421.932 174.462 422.888 174.422 422.743C174.382 422.597 178.273 421.405 183.115 420.08C187.954 418.755 191.911 417.799 191.951 417.944Z" fill="#E0E0E0"/>
<path d="M188.086 426.123C188.142 426.257 186.831 426.919 185.081 427.335C183.331 427.758 181.863 427.764 181.852 427.618C181.837 427.462 183.247 427.216 184.953 426.803C186.66 426.398 188.029 425.978 188.086 426.123Z" fill="#E0E0E0"/>
<path d="M176.921 416.955C176.912 416.957 176.879 416.861 176.824 416.67C176.763 416.449 176.687 416.17 176.592 415.822C176.39 415.035 176.108 413.939 175.751 412.548C175.034 409.659 174.014 405.548 172.757 400.484C172.132 397.932 171.448 395.142 170.715 392.148C170.536 391.422 170.28 390.682 169.837 390.085C169.427 389.473 168.651 389.155 168.013 389.479C167.384 389.788 167.08 390.62 167.073 391.385C167.055 392.168 167.432 392.922 167.965 393.538C169.051 394.777 170.886 395.306 172.593 395.074C174.328 394.865 175.856 393.637 176.65 392.002C177.471 390.379 177.662 388.408 177.229 386.578C177.012 385.667 176.651 384.749 175.986 384.132C175.359 383.523 174.281 383.304 173.589 383.799C172.895 384.295 172.779 385.39 173.138 386.185C173.501 387.022 174.24 387.666 175.005 388.232C176.534 389.365 178.297 390.205 180.119 390.342C181.024 390.407 181.937 390.293 182.742 389.95C183.545 389.593 184.26 389.042 184.787 388.356C185.318 387.68 185.67 386.862 185.71 386.036C185.761 385.209 185.502 384.382 184.954 383.794C184.425 383.2 183.62 382.865 182.903 383.089C182.184 383.3 181.642 383.962 181.384 384.671C180.888 386.143 181.326 387.781 181.502 389.286C181.986 392.326 182.531 395.148 183.029 397.723C184.062 402.836 184.9 406.986 185.489 409.903C185.774 411.31 185.998 412.419 186.159 413.215C186.226 413.569 186.279 413.854 186.322 414.079C186.356 414.274 186.369 414.375 186.359 414.377C186.35 414.379 186.319 414.282 186.267 414.091C186.211 413.869 186.14 413.588 186.051 413.239C185.866 412.448 185.608 411.347 185.28 409.949C184.63 407.087 183.704 402.942 182.649 397.8C182.126 395.228 181.559 392.409 181.053 389.358C180.942 388.59 180.809 387.82 180.728 387.013C180.651 386.21 180.637 385.346 180.931 384.508C181.227 383.694 181.836 382.903 182.762 382.618C183.699 382.323 184.715 382.766 185.325 383.456C185.971 384.143 186.281 385.121 186.222 386.065C186.177 387.016 185.78 387.931 185.199 388.678C184.619 389.435 183.841 390.04 182.952 390.437C182.049 390.824 181.055 390.946 180.08 390.878C178.114 390.732 176.27 389.844 174.68 388.671C173.895 388.086 173.075 387.4 172.636 386.404C172.21 385.433 172.294 384.091 173.269 383.357C174.271 382.672 175.58 382.997 176.355 383.732C177.151 384.479 177.524 385.488 177.757 386.453C178.216 388.409 178.013 390.496 177.127 392.246C176.281 394 174.575 395.371 172.665 395.593C170.8 395.838 168.813 395.271 167.586 393.874C166.994 393.192 166.556 392.309 166.579 391.383C166.601 390.503 166.914 389.506 167.8 389.049C168.234 388.83 168.737 388.828 169.174 388.985C169.619 389.142 169.957 389.465 170.209 389.806C170.713 390.5 170.968 391.281 171.154 392.046C171.864 395.046 172.526 397.842 173.131 400.399C174.317 405.479 175.279 409.604 175.956 412.502C176.271 413.903 176.519 415.006 176.697 415.799C176.77 416.152 176.83 416.435 176.876 416.66C176.915 416.852 176.93 416.953 176.921 416.955Z" fill="#E0E0E0"/>
<path d="M191.313 421.682C191.353 421.828 188.201 422.816 184.274 423.889C180.346 424.962 177.13 425.714 177.09 425.568C177.05 425.422 180.202 424.434 184.13 423.361C188.057 422.289 191.273 421.537 191.313 421.682Z" fill="#E0E0E0"/>
<path d="M445.536 65.604H54.6836V90.642H445.536V65.604Z" fill="#E0E0E0"/>
<path d="M445.477 113.644H54.625V332.843H445.477V113.644Z" fill="white"/>
<path d="M54.6836 90.455H108.349L113.667 74.968H200.659L205.977 90.455H445.536V114.166H54.6836V90.455Z" fill="#EBEBEB"/>
<path d="M67.581 75.5869C67.581 77.2089 66.266 78.5239 64.644 78.5239C63.022 78.5239 61.707 77.2089 61.707 75.5869C61.707 73.9649 63.022 72.6499 64.644 72.6499C66.266 72.6489 67.581 73.9639 67.581 75.5869Z" fill="#263238"/>
<path d="M76.6709 75.5869C76.6709 77.2089 75.3559 78.5239 73.7339 78.5239C72.1119 78.5239 70.7969 77.2089 70.7969 75.5869C70.7969 73.9649 72.1119 72.6499 73.7339 72.6499C75.3559 72.6489 76.6709 73.9639 76.6709 75.5869Z" fill="#263238"/>
<path d="M85.7607 75.5869C85.7607 77.2089 84.4457 78.5239 82.8237 78.5239C81.2017 78.5239 79.8867 77.2089 79.8867 75.5869C79.8867 73.9649 81.2017 72.6499 82.8237 72.6499C84.4457 72.6489 85.7607 73.9639 85.7607 75.5869Z" fill="#263238"/>
<path d="M402.33 109.451H134.18C130.07 109.451 126.738 106.119 126.738 102.009C126.738 97.8989 130.07 94.5669 134.18 94.5669H402.331C406.441 94.5669 409.773 97.8989 409.773 102.009C409.772 106.12 406.441 109.451 402.33 109.451Z" fill="#FAFAFA"/>
<path d="M140.598 103.001V105.515H139.325V103.197C139.325 102.487 138.998 102.16 138.435 102.16C137.823 102.16 137.382 102.535 137.382 103.344V105.515H136.109V99.4578H137.382V101.581C137.725 101.238 138.215 101.059 138.778 101.059C139.815 101.058 140.598 101.662 140.598 103.001Z" fill="#E0E0E0"/>
<path d="M144.585 105.303C144.324 105.491 143.94 105.581 143.548 105.581C142.511 105.581 141.907 105.05 141.907 104.005V102.201H141.23V101.222H141.907V100.153H143.181V101.222H144.275V102.201H143.181V103.989C143.181 104.364 143.385 104.569 143.728 104.569C143.916 104.569 144.104 104.512 144.242 104.405L144.585 105.303Z" fill="#E0E0E0"/>
<path d="M148.039 105.303C147.778 105.491 147.394 105.581 147.002 105.581C145.965 105.581 145.361 105.05 145.361 104.005V102.201H144.684V101.222H145.361V100.153H146.635V101.222H147.729V102.201H146.635V103.989C146.635 104.364 146.839 104.569 147.182 104.569C147.37 104.569 147.558 104.512 147.696 104.405L148.039 105.303Z" fill="#E0E0E0"/>
<path d="M153.541 103.319C153.541 104.698 152.586 105.58 151.353 105.58C150.806 105.58 150.357 105.409 150.031 105.049V107.098H148.758V101.122H149.974V101.628C150.292 101.244 150.766 101.057 151.353 101.057C152.586 101.058 153.541 101.939 153.541 103.319ZM152.251 103.319C152.251 102.56 151.77 102.103 151.133 102.103C150.496 102.103 150.014 102.56 150.014 103.319C150.014 104.078 150.496 104.535 151.133 104.535C151.77 104.535 152.251 104.078 152.251 103.319Z" fill="#E0E0E0"/>
<path d="M154.082 101.849C154.082 101.376 154.433 101.065 154.874 101.065C155.315 101.065 155.666 101.376 155.666 101.849C155.666 102.314 155.315 102.649 154.874 102.649C154.433 102.65 154.082 102.315 154.082 101.849ZM154.082 104.78C154.082 104.307 154.433 103.996 154.874 103.996C155.315 103.996 155.666 104.307 155.666 104.78C155.666 105.245 155.315 105.58 154.874 105.58C154.433 105.58 154.082 105.245 154.082 104.78Z" fill="#E0E0E0"/>
<path d="M158.799 98.6409H159.934L157.24 106.331H156.105L158.799 98.6409Z" fill="#E0E0E0"/>
<path d="M161.405 98.6409H162.54L159.846 106.331H158.711L161.405 98.6409Z" fill="#E0E0E0"/>
<path d="M402.09 153.063H168.464C161.179 153.063 155.273 147.157 155.273 139.872C155.273 132.587 161.179 126.681 168.464 126.681H402.09C409.375 126.681 415.281 132.587 415.281 139.872C415.281 147.157 409.375 153.063 402.09 153.063Z" fill="#FAFAFA"/>
<path d="M402.089 153.063C402.055 152.953 404.107 153.302 407.488 151.841C409.124 151.073 411.09 149.798 412.651 147.622C413.431 146.547 414.129 145.274 414.587 143.809C415.036 142.345 415.255 140.702 415.134 138.979C415.016 137.259 414.544 135.46 413.65 133.765C412.764 132.067 411.413 130.511 409.718 129.279C408.032 128.029 405.928 127.213 403.676 126.923C402.55 126.796 401.38 126.818 400.185 126.823C398.992 126.825 397.778 126.826 396.542 126.828C386.655 126.839 375.398 126.852 362.955 126.866C313.173 126.886 244.417 126.913 168.477 126.942C166.156 126.979 163.823 127.554 161.851 128.776C159.849 129.944 158.227 131.691 157.104 133.693C154.899 137.734 155.039 142.93 157.526 146.748C158.712 148.682 160.458 150.239 162.43 151.307C164.431 152.344 166.664 152.871 168.918 152.806C173.471 152.807 177.988 152.807 182.465 152.808C200.373 152.813 217.646 152.818 234.101 152.823C267.009 152.844 296.644 152.863 321.534 152.879C346.416 152.914 366.552 152.942 380.478 152.962C387.431 152.983 392.831 153 396.504 153.011C398.33 153.022 399.724 153.031 400.672 153.037C401.608 153.045 402.089 153.063 402.089 153.063C402.089 153.063 401.608 153.081 400.669 153.09C399.721 153.096 398.327 153.105 396.501 153.116C392.829 153.127 387.428 153.144 380.475 153.165C366.549 153.185 346.413 153.213 321.531 153.248C296.641 153.264 267.006 153.283 234.098 153.304C217.643 153.309 200.369 153.314 182.462 153.319C177.985 153.32 173.469 153.321 168.915 153.321C166.609 153.389 164.258 152.843 162.186 151.764C160.134 150.655 158.32 149.035 157.085 147.025C154.499 143.052 154.349 137.651 156.645 133.445C157.813 131.362 159.5 129.547 161.582 128.33C163.633 127.06 166.062 126.459 168.475 126.422C244.415 126.452 313.171 126.479 362.953 126.498C375.396 126.512 386.652 126.525 396.54 126.536C397.776 126.538 398.99 126.54 400.183 126.541C401.372 126.54 402.549 126.52 403.706 126.654C406.004 126.956 408.147 127.797 409.861 129.077C411.584 130.339 412.952 131.928 413.847 133.659C414.75 135.387 415.222 137.218 415.334 138.965C415.449 140.714 415.219 142.38 414.756 143.862C414.284 145.345 413.57 146.63 412.774 147.713C411.181 149.905 409.186 151.177 407.53 151.936C405.845 152.689 404.436 152.889 403.509 153.01C402.57 153.063 402.089 153.063 402.089 153.063Z" fill="#263238"/>
<path d="M173.816 142.681L174.314 141.576C174.849 141.966 175.646 142.238 176.408 142.238C177.278 142.238 177.632 141.948 177.632 141.558C177.632 140.371 173.943 141.186 173.943 138.83C173.943 137.751 174.813 136.854 176.617 136.854C177.414 136.854 178.23 137.044 178.819 137.416L178.366 138.531C177.777 138.195 177.17 138.032 176.608 138.032C175.738 138.032 175.402 138.358 175.402 138.757C175.402 139.926 179.091 139.119 179.091 141.449C179.091 142.509 178.212 143.416 176.399 143.416C175.393 143.415 174.378 143.116 173.816 142.681Z" fill="#E0E0E0"/>
<path d="M184.752 141.267H181.063C181.199 141.874 181.716 142.246 182.459 142.246C182.976 142.246 183.347 142.092 183.683 141.775L184.436 142.591C183.982 143.108 183.303 143.379 182.424 143.379C180.738 143.379 179.641 142.319 179.641 140.869C179.641 139.409 180.756 138.358 182.242 138.358C183.674 138.358 184.78 139.319 184.78 140.887C184.779 140.995 184.761 141.149 184.752 141.267ZM181.045 140.442H183.447C183.347 139.826 182.885 139.427 182.251 139.427C181.607 139.427 181.144 139.817 181.045 140.442Z" fill="#E0E0E0"/>
<path d="M189.901 140.524V143.307H188.578V142.7C188.315 143.144 187.808 143.38 187.092 143.38C185.95 143.38 185.27 142.746 185.27 141.903C185.27 141.042 185.877 140.443 187.364 140.443H188.488C188.488 139.836 188.126 139.483 187.364 139.483C186.847 139.483 186.313 139.655 185.959 139.936L185.451 138.948C185.986 138.568 186.774 138.359 187.554 138.359C189.04 138.358 189.901 139.047 189.901 140.524ZM188.487 141.765V141.267H187.517C186.855 141.267 186.647 141.512 186.647 141.838C186.647 142.192 186.946 142.427 187.445 142.427C187.916 142.427 188.324 142.21 188.487 141.765Z" fill="#E0E0E0"/>
<path d="M194.21 138.358V139.663C194.092 139.654 194.002 139.645 193.893 139.645C193.113 139.645 192.597 140.071 192.597 141.004V143.306H191.184V138.429H192.534V139.073C192.878 138.602 193.458 138.358 194.21 138.358Z" fill="#E0E0E0"/>
<path d="M194.648 140.868C194.648 139.4 195.781 138.357 197.367 138.357C198.391 138.357 199.198 138.801 199.551 139.599L198.454 140.188C198.191 139.726 197.802 139.518 197.357 139.518C196.641 139.518 196.079 140.017 196.079 140.869C196.079 141.721 196.641 142.219 197.357 142.219C197.801 142.219 198.191 142.02 198.454 141.549L199.551 142.147C199.197 142.926 198.391 143.379 197.367 143.379C195.78 143.379 194.648 142.337 194.648 140.868Z" fill="#E0E0E0"/>
<path d="M205.317 140.515V143.307H203.903V140.733C203.903 139.945 203.541 139.582 202.915 139.582C202.235 139.582 201.746 139.999 201.746 140.896V143.307H200.332V136.582H201.746V138.938C202.127 138.557 202.671 138.358 203.296 138.358C204.447 138.358 205.317 139.028 205.317 140.515Z" fill="#E0E0E0"/>
<path d="M208.82 142.49C208.82 141.965 209.21 141.62 209.699 141.62C210.188 141.62 210.578 141.965 210.578 142.49C210.578 143.007 210.188 143.378 209.699 143.378C209.21 143.379 208.82 143.007 208.82 142.49Z" fill="#E0E0E0"/>
<path d="M211.195 142.49C211.195 141.965 211.585 141.62 212.074 141.62C212.563 141.62 212.953 141.965 212.953 142.49C212.953 143.007 212.563 143.378 212.074 143.378C211.585 143.379 211.195 143.007 211.195 142.49Z" fill="#E0E0E0"/>
<path d="M213.574 142.49C213.574 141.965 213.964 141.62 214.453 141.62C214.942 141.62 215.332 141.965 215.332 142.49C215.332 143.007 214.942 143.378 214.453 143.378C213.964 143.379 213.574 143.007 213.574 142.49Z" fill="#E0E0E0"/>
<path d="M128.072 176.024C128.072 176.168 118.695 176.284 107.131 176.284C95.5625 176.284 86.1875 176.167 86.1875 176.024C86.1875 175.88 95.5625 175.764 107.131 175.764C118.696 175.763 128.072 175.88 128.072 176.024Z" fill="black"/>
<path d="M129.705 187.99H86.1875V231.508H129.705V187.99Z" fill="#9933FF"/>
<path d="M394.156 198.248C394.156 198.392 340.136 198.508 273.513 198.508C206.868 198.508 152.859 198.391 152.859 198.248C152.859 198.105 206.868 197.988 273.513 197.988C340.135 197.987 394.156 198.104 394.156 198.248Z" fill="black"/>
<path d="M218.856 214.633C218.856 214.777 204.621 214.893 187.066 214.893C169.505 214.893 155.273 214.776 155.273 214.633C155.273 214.489 169.505 214.373 187.066 214.373C204.621 214.372 218.856 214.489 218.856 214.633Z" fill="black"/>
<path d="M355.587 229.825C355.587 229.969 310.742 230.085 255.435 230.085C200.109 230.085 155.273 229.968 155.273 229.825C155.273 229.682 200.109 229.565 255.435 229.565C310.742 229.565 355.587 229.681 355.587 229.825Z" fill="#E0E0E0"/>
<path d="M128.072 253.97C128.072 254.114 118.695 254.23 107.131 254.23C95.5625 254.23 86.1875 254.113 86.1875 253.97C86.1875 253.826 95.5625 253.71 107.131 253.71C118.696 253.71 128.072 253.826 128.072 253.97Z" fill="black"/>
<path d="M129.705 265.937H86.1875V309.455H129.705V265.937Z" fill="#9933FF"/>
<path d="M408.491 276.194C408.491 276.338 351.261 276.454 280.681 276.454C210.076 276.454 152.859 276.337 152.859 276.194C152.859 276.051 210.077 275.934 280.681 275.934C351.261 275.934 408.491 276.05 408.491 276.194Z" fill="black"/>
<path d="M218.856 292.579C218.856 292.723 204.621 292.839 187.066 292.839C169.505 292.839 155.273 292.723 155.273 292.579C155.273 292.435 169.505 292.319 187.066 292.319C204.621 292.319 218.856 292.435 218.856 292.579Z" fill="black"/>
<path d="M390.474 307.771C390.474 307.915 337.818 308.031 272.879 308.031C207.918 308.031 155.273 307.915 155.273 307.771C155.273 307.627 207.917 307.511 272.879 307.511C337.818 307.511 390.474 307.628 390.474 307.771Z" fill="#E0E0E0"/>
<path d="M445.534 333.366C445.533 331.652 445.452 228.573 445.325 65.604L445.534 65.813C337.347 65.827 201.645 65.845 54.7129 65.864H54.6819L54.9419 65.604C54.9339 161.178 54.9259 251.99 54.9189 333.365L54.6809 333.127C285.233 333.268 443.414 333.364 445.534 333.366C443.415 333.367 285.232 333.464 54.6819 333.604H54.4439V333.366C54.4369 251.991 54.4299 161.179 54.4219 65.605V65.345H54.6829H54.7139C201.645 65.364 337.348 65.382 445.535 65.396H445.745V65.605C445.616 228.573 445.536 331.652 445.534 333.366Z" fill="#263238"/>
<path d="M190.104 85.0039C190.104 85.1479 176.304 85.2639 159.284 85.2639C142.258 85.2639 128.461 85.1469 128.461 85.0039C128.461 84.8609 142.259 84.7439 159.284 84.7439C176.304 84.7429 190.104 84.8599 190.104 85.0039Z" fill="black"/>
<path d="M134.5 134.224H79.7578V150.714H134.5V134.224Z" fill="#455A64"/>
<path d="M231.43 177.413C231.43 177.557 214.408 177.673 193.416 177.673C172.416 177.673 155.398 177.556 155.398 177.413C155.398 177.27 172.416 177.153 193.416 177.153C214.408 177.153 231.43 177.269 231.43 177.413Z" fill="#9933FF"/>
<path d="M231.43 253.97C231.43 254.114 214.408 254.23 193.416 254.23C172.416 254.23 155.398 254.113 155.398 253.97C155.398 253.826 172.416 253.71 193.416 253.71C214.408 253.71 231.43 253.826 231.43 253.97Z" fill="#9933FF"/>
<path d="M397.061 144.261C393.557 144.261 390.707 141.41 390.707 137.907C390.707 134.403 393.558 131.552 397.061 131.552C400.564 131.552 403.416 134.403 403.416 137.907C403.416 141.411 400.565 144.261 397.061 144.261ZM397.061 132.553C394.109 132.553 391.707 134.955 391.707 137.908C391.707 140.86 394.109 143.262 397.061 143.262C400.013 143.262 402.416 140.86 402.416 137.908C402.416 134.954 400.013 132.553 397.061 132.553Z" fill="#9933FF"/>
<path d="M404.868 147.08C404.741 147.08 404.613 147.032 404.515 146.935L400.374 142.824C400.179 142.629 400.177 142.313 400.372 142.116C400.566 141.921 400.883 141.919 401.079 142.114L405.22 146.225C405.415 146.42 405.417 146.736 405.222 146.933C405.125 147.031 404.997 147.08 404.868 147.08Z" fill="#9933FF"/>
<path d="M299.882 213.507C299.882 213.651 283.506 213.767 263.31 213.767C243.107 213.767 226.734 213.65 226.734 213.507C226.734 213.364 243.107 213.247 263.31 213.247C283.506 213.247 299.882 213.364 299.882 213.507Z" fill="black"/>
<path d="M347.149 212.382C347.149 212.526 338.583 212.642 328.019 212.642C317.451 212.642 308.887 212.525 308.887 212.382C308.887 212.239 317.451 212.122 328.019 212.122C338.583 212.122 347.149 212.238 347.149 212.382Z" fill="black"/>
<path d="M299.535 292.579C299.535 292.723 283.159 292.839 262.963 292.839C242.76 292.839 226.387 292.723 226.387 292.579C226.387 292.435 242.76 292.319 262.963 292.319C283.158 292.319 299.535 292.435 299.535 292.579Z" fill="black"/>
<path d="M270.02 448.086V468.855L311.9 468.652C311.596 464.441 288.611 456.038 288.611 456.038L289.068 448.086H270.02Z" fill="#455A64"/>
<g opacity="0.6">
<path d="M276.794 454.158C275.991 454.404 275.448 455.372 275.647 456.233C275.847 457.093 276.772 457.688 277.579 457.457C278.386 457.226 279.072 456.085 278.783 455.254C278.494 454.423 277.371 453.788 276.64 454.217" fill="white"/>
</g>
<path d="M270.02 468.855V465.538L310.005 466.011C310.005 466.011 312.09 467.266 311.9 468.653L270.02 468.855Z" fill="#263238"/>
<path d="M288.61 456.439C288.607 456.655 287.591 456.768 286.6 457.476C285.591 458.157 285.089 459.097 284.901 459.015C284.713 458.976 284.998 457.683 286.212 456.848C287.418 456.003 288.652 456.241 288.61 456.439Z" fill="#263238"/>
<path d="M294.096 458.361C294.145 458.569 293.269 458.949 292.592 459.871C291.888 460.771 291.728 461.76 291.525 461.753C291.334 461.79 291.176 460.53 292.039 459.401C292.894 458.264 294.089 458.156 294.096 458.361Z" fill="#263238"/>
<path d="M296.565 463.654C296.381 463.703 296.082 462.63 296.588 461.443C297.086 460.251 298.038 459.771 298.127 459.949C298.244 460.125 297.636 460.767 297.235 461.749C296.812 462.72 296.766 463.63 296.565 463.654Z" fill="#263238"/>
<path d="M288.203 450.534C288.121 450.732 287.183 450.448 286.034 450.548C284.883 450.624 283.994 451.046 283.886 450.863C283.766 450.709 284.628 449.898 285.983 449.8C287.336 449.691 288.3 450.363 288.203 450.534Z" fill="#263238"/>
<path d="M288.439 457.369C288.47 457.374 288.576 456.926 288.529 456.1C288.469 455.286 288.22 454.068 287.42 452.826C287.016 452.214 286.486 451.601 285.782 451.102C285.442 450.864 284.911 450.602 284.368 450.854C283.859 451.098 283.572 451.667 283.543 452.222C283.596 454.359 285.131 456.331 287.223 457.081C289.369 457.832 291.638 456.905 292.88 455.401C293.184 455.018 293.478 454.629 293.631 454.119C293.702 453.87 293.736 453.575 293.637 453.288C293.542 453.006 293.318 452.781 293.068 452.687C292.562 452.514 292.133 452.666 291.763 452.816C291.399 452.991 291.087 453.171 290.788 453.371C289.6 454.162 288.842 455.077 288.394 455.741C287.944 456.41 287.788 456.837 287.817 456.853C287.911 456.949 288.684 455.213 291.006 453.754C291.566 453.433 292.301 452.971 292.893 453.177C293.153 453.284 293.256 453.589 293.132 453.953C293.022 454.311 292.754 454.674 292.474 455.011C291.341 456.34 289.291 457.147 287.41 456.48C285.552 455.855 284.15 453.966 284.094 452.259C284.104 451.864 284.308 451.501 284.587 451.36C284.855 451.217 285.207 451.337 285.52 451.545C286.163 451.976 286.682 452.532 287.079 453.087C287.871 454.217 288.174 455.353 288.3 456.13C288.414 456.915 288.389 457.366 288.439 457.369Z" fill="#263238"/>
<path d="M254.716 451.094L255.426 456.436L254.952 468.491L239.25 468.874L238.691 456.436L240.477 449.049L254.716 451.094Z" fill="#455A64"/>
<path d="M247.19 467.583C247.094 467.588 247.321 463.901 247.695 459.348C248.069 454.794 248.45 451.1 248.545 451.095C248.64 451.09 248.414 454.777 248.04 459.331C247.666 463.883 247.285 467.578 247.19 467.583Z" fill="#263238"/>
<path d="M255.011 466.484L239.148 466.668V468.874L255.022 468.855L255.011 466.484Z" fill="#263238"/>
<path d="M239.19 459.554C239.166 459.536 239.301 459.304 239.592 458.918C239.883 458.532 240.345 458.001 240.992 457.421C241.639 456.843 242.479 456.215 243.528 455.719C244.567 455.214 245.834 454.858 247.188 454.871C249.904 454.875 252.188 456.204 253.313 457.53C253.897 458.184 254.257 458.799 254.463 459.238C254.665 459.68 254.74 459.938 254.713 459.949C254.627 459.997 254.248 458.968 253.069 457.762C251.927 456.551 249.76 455.354 247.183 455.347C244.614 455.333 242.497 456.631 241.211 457.679C239.895 458.748 239.256 459.608 239.19 459.554Z" fill="#263238"/>
<path d="M247.123 114.736L246.957 169.022L270.247 170.133L270.92 156.929C270.92 156.929 279.192 158.572 281.326 150.889C282.69 145.981 282.349 108.055 282.349 108.055L247.123 114.736Z" fill="#B78876"/>
<path d="M285.411 111.877C281.743 112.927 280.946 118.923 280.946 118.923L275.192 131.632C272.261 129.337 268.325 129.469 267.58 134.62C267.042 138.342 271.67 139.095 271.67 139.095C268.976 143.68 267.148 147.388 263.226 151.749C258.981 156.469 256.602 156.944 251.998 157.021H246.921C246.921 157.021 244.436 148.954 239.834 128.779C234.728 106.397 261.195 109.28 266.102 103.567C274.091 94.2612 296.975 108.567 285.411 111.877Z" fill="#263238"/>
<path d="M291.876 107.015C291.497 104.632 289.214 102.638 286.805 102.79C287.668 101.58 287.256 99.7611 286.146 98.7731C285.036 97.7841 283.422 97.5281 281.953 97.7501C280.483 97.9721 279.116 98.6171 277.773 99.2541C277.532 98.1181 276.095 96.2371 275.074 95.6821C273.026 94.5681 271.742 94.5681 270.581 94.5681C263.435 94.5671 259.667 99.4651 255.833 104.45C255.175 105.306 254.523 106.261 253.515 106.649C252.836 106.911 252.085 106.877 251.357 106.891C245.914 106.997 240.646 110.273 238.143 115.108C235.64 119.943 233.773 131.134 240.247 138.071L244.151 146.784L281.483 117.204C281.748 117.342 284.088 118.483 285.889 117.536C290.359 115.183 288.484 111.259 288.484 111.259C288.84 111.074 292.255 109.398 291.876 107.015Z" fill="#263238"/>
<path d="M257.323 136.108C257.474 136.092 257.704 137.976 257.19 140.23C256.689 142.488 255.673 144.09 255.544 144.011C255.388 143.933 256.135 142.27 256.615 140.1C257.11 137.935 257.149 136.112 257.323 136.108Z" fill="#455A64"/>
<path d="M260.137 133.444C260.294 133.451 260.328 135.246 259.921 137.412C259.52 139.58 258.841 141.242 258.692 141.192C258.531 141.141 258.949 139.43 259.341 137.304C259.741 135.18 259.969 133.434 260.137 133.444Z" fill="#455A64"/>
<path d="M268.207 124.485C268.263 124.563 267.603 125.044 266.766 126.025C265.921 126.996 264.96 128.515 264.256 130.357C263.551 132.2 263.164 133.966 262.865 135.239C262.572 136.516 262.371 137.307 262.288 137.292C262.21 137.279 262.266 136.466 262.455 135.162C262.652 133.862 262.978 132.051 263.706 130.145C264.433 128.239 265.501 126.678 266.46 125.742C267.414 124.793 268.174 124.427 268.207 124.485Z" fill="#455A64"/>
<path d="M271.467 118.385C271.535 118.366 271.774 118.91 271.919 119.854C272.067 120.793 272.071 122.139 271.717 123.56C271.358 124.981 270.72 126.165 270.147 126.924C269.574 127.688 269.107 128.055 269.056 128.006C268.91 127.894 270.486 126.142 271.145 123.416C271.849 120.704 271.287 118.415 271.467 118.385Z" fill="#455A64"/>
<path d="M243.671 131.943C243.592 132.085 242.878 131.838 242.078 131.391C241.278 130.944 240.693 130.466 240.773 130.324C240.852 130.182 241.565 130.429 242.366 130.876C243.166 131.323 243.751 131.801 243.671 131.943Z" fill="#455A64"/>
<path d="M254.922 126.147C255.076 126.169 254.981 127.32 254.257 128.508C253.541 129.702 252.567 130.322 252.476 130.196C252.365 130.066 253.097 129.3 253.752 128.203C254.419 127.114 254.756 126.11 254.922 126.147Z" fill="#455A64"/>
<path d="M258.383 124.289C258.533 124.322 258.289 125.701 257.347 127.111C256.414 128.528 255.239 129.288 255.149 129.163C255.039 129.031 255.981 128.116 256.855 126.785C257.742 125.463 258.219 124.239 258.383 124.289Z" fill="#455A64"/>
<path d="M275.58 101.554C275.539 101.601 275.143 101.222 274.303 100.744C273.463 100.282 272.121 99.7782 270.401 99.7352C268.697 99.6822 266.605 100.088 264.676 101.273C262.746 102.457 261.039 104.386 259.8 106.705C258.897 108.39 258.272 110.145 257.821 111.795L257.728 112.136L257.415 111.972C255.686 111.064 253.854 110.665 252.219 110.643C250.577 110.598 249.132 110.899 247.989 111.282C245.687 112.068 244.595 113.103 244.536 113.009C244.518 112.988 244.777 112.729 245.315 112.319C245.857 111.916 246.706 111.393 247.87 110.947C249.031 110.506 250.517 110.149 252.225 110.159C253.926 110.146 255.849 110.531 257.681 111.473L257.275 111.65C257.719 109.963 258.35 108.163 259.281 106.425C260.56 104.033 262.349 102.028 264.396 100.808C266.447 99.5852 268.643 99.2092 270.42 99.3182C272.214 99.4172 273.592 100.009 274.422 100.547C274.831 100.833 275.138 101.064 275.317 101.257C275.503 101.438 275.594 101.539 275.58 101.554Z" fill="#455A64"/>
<path d="M287.829 104.508C287.787 104.497 288.477 104.334 289.165 105.114C289.48 105.49 289.769 106.082 289.701 106.814C289.63 107.544 289.126 108.297 288.347 108.748C287.581 109.217 286.532 109.374 285.518 109.137C284.498 108.915 283.517 108.374 282.599 107.722C281.673 107.075 280.784 106.322 279.744 105.766C278.706 105.202 277.537 104.791 276.303 104.556C273.824 104.094 271.361 104.373 269.281 105.037C267.189 105.708 265.452 106.715 264.09 107.675C261.371 109.63 260.03 111.266 259.947 111.182C259.92 111.158 260.231 110.736 260.868 110.035C261.512 109.342 262.484 108.363 263.845 107.339C265.201 106.318 266.96 105.244 269.113 104.521C271.259 103.804 273.818 103.494 276.412 103.977C277.704 104.223 278.932 104.659 280.022 105.26C281.123 105.86 282.023 106.641 282.914 107.28C283.799 107.927 284.706 108.44 285.627 108.661C286.544 108.893 287.447 108.777 288.14 108.387C288.836 108.015 289.287 107.378 289.374 106.774C289.462 106.161 289.242 105.612 288.985 105.257C288.432 104.515 287.799 104.574 287.829 104.508Z" fill="#455A64"/>
<path d="M396.333 146.159C395.454 145.378 383.595 150.354 383.595 150.354C383.595 150.354 374.746 157.295 371.103 161.396L368.853 163.267L335.195 189.441L293.794 172.218L284.812 195.315C284.812 195.315 331.29 213.817 338.371 210.649C346.067 207.206 374.717 177.222 374.784 177.119L374.785 177.118L378.922 173.132C378.922 173.132 381.111 173.089 382.77 172.991C384.429 172.893 389.289 169.664 389.289 169.664C389.289 169.664 389.99 168.401 390.23 166.833C390.47 165.265 389.332 164.777 389.332 164.777C389.332 164.777 389.604 163.762 389.415 162.441C389.226 161.12 387.462 159.587 387.462 159.587C387.462 159.587 388.159 159.018 388.568 157.496C388.977 155.973 387.005 154.536 387.005 154.536C387.005 154.536 393.888 149.855 395.56 149.034C397.232 148.215 397.212 146.939 396.333 146.159Z" fill="#B78876"/>
<path d="M299.882 382.692C300.02 381.172 300.096 380.004 300.096 379.272L304.771 304.638C304.771 304.638 300.841 282.843 298.983 277.059L282.27 270.59L260.007 279.262C259.859 277.465 259.769 276.363 259.769 276.363L226.975 287.698C226.975 287.698 226.126 310.07 226.975 316.88C227.247 319.067 228.106 324.719 229.145 331.378C229.145 331.378 230.201 345.85 230.418 346.658C231.213 349.608 231.397 356.834 231.397 364.075C231.397 373.277 231.897 384.226 232.471 389.432C233.045 394.637 233.324 451.871 233.324 451.871H257.521L260.628 360.705C261.149 350.935 261.932 335.995 262.434 325.187L268.117 358.848C268.117 360.082 271.575 379.327 271.575 379.327C271.575 379.327 270.309 388.356 270.092 397.588C269.693 414.555 267.698 451.871 267.698 451.871H291.385C291.385 451.871 298.498 397.985 299.882 382.692Z" fill="#263238"/>
<path d="M303.958 300.166C303.927 300.22 303.068 299.822 301.775 299.002C300.483 298.185 298.778 296.917 297.095 295.292C295.415 293.663 294.091 292 293.232 290.736C292.371 289.471 291.944 288.625 291.997 288.593C292.064 288.551 292.598 289.326 293.524 290.523C294.449 291.72 295.795 293.32 297.45 294.925C299.108 296.525 300.751 297.818 301.977 298.703C303.205 299.59 303.997 300.098 303.958 300.166Z" fill="#455A64"/>
<path d="M261.722 313.729C261.69 313.745 261.527 313.48 261.258 312.985C260.984 312.493 260.633 311.757 260.239 310.83C259.45 308.978 258.568 306.317 258.035 303.282C257.509 300.244 257.439 297.442 257.556 295.432C257.612 294.427 257.694 293.615 257.786 293.06C257.872 292.504 257.936 292.199 257.971 292.203C258.054 292.212 257.939 293.448 257.918 295.443C257.895 297.437 258.021 300.197 258.54 303.194C259.066 306.189 259.88 308.828 260.576 310.697C261.27 312.568 261.797 313.692 261.722 313.729Z" fill="#455A64"/>
<path d="M265.241 341.83C265.204 341.836 265.096 341.373 264.93 340.531C264.756 339.582 264.536 338.385 264.275 336.96C263.748 333.827 263.055 329.706 262.289 325.15C260.951 316.778 260.04 311.078 259.617 308.427C259.728 308.385 260.197 310.254 260.761 313.26C261.338 316.272 262.064 320.446 262.819 325.063C263.573 329.679 264.214 333.865 264.65 336.9C264.844 338.336 265.007 339.542 265.137 340.499C265.238 341.351 265.278 341.824 265.241 341.83Z" fill="#455A64"/>
<path d="M208.137 217.347C208.137 217.347 204.94 239.841 204.343 247.723C203.984 252.468 208.803 258.768 212.481 259.229C216.218 259.697 228.564 260.427 228.564 260.427L229.593 246.32L229.272 243.515L225.422 242.79L226.582 220.415L208.137 217.347Z" fill="#B78876"/>
<path d="M226.074 221.171C226.111 221.17 226.16 221.604 226.217 222.393C226.276 223.181 226.326 224.324 226.354 225.737C226.418 228.563 226.353 232.47 226.111 236.774C225.869 241.079 225.526 244.966 225.246 247.776C225.106 249.181 224.98 250.316 224.88 251.1C224.781 251.884 224.708 252.315 224.671 252.312C224.634 252.309 224.636 251.871 224.672 251.082C224.725 250.182 224.79 249.066 224.868 247.745C225.057 244.81 225.303 240.981 225.575 236.745C225.817 232.45 225.942 228.558 225.975 225.739C225.988 224.417 225.999 223.3 226.008 222.4C226.016 221.61 226.038 221.172 226.074 221.171Z" fill="#AA6550"/>
<g opacity="0.3">
<path d="M227.288 288.106C233.588 290.446 240.492 290.643 247.187 290.057C253.882 289.471 260.492 288.133 267.183 287.498C277.298 286.538 287.566 287.203 297.474 289.459C298.176 289.619 298.9 289.787 299.609 289.662C300.318 289.537 301.014 289.034 301.125 288.322C301.298 287.204 300.074 286.424 299.031 285.985C276.26 276.406 249.423 277.006 227.102 287.593" fill="black"/>
</g>
<path d="M323.747 182.441L288.233 164.758C278.899 163.668 271.351 164.02 271.351 164.02H247.844C247.844 164.02 219.356 172.422 214.655 180.166L202.445 216.768L226.58 220.414L229.591 246.709C229.591 246.709 226.596 277.158 226.596 281.583C226.596 286.008 226.973 287.698 226.973 287.698C226.973 287.698 275.266 280.355 287.158 284.227C299.05 288.099 302.264 287.698 302.264 287.698C302.264 287.698 301.27 275.059 300.388 267.727L297.631 231.034L295.595 203.017L317.945 209.857L323.747 182.441Z" fill="#9933FF"/>
<path d="M226.358 220.701C226.27 220.711 226.033 219.187 225.497 216.754C224.959 214.322 224.07 210.988 222.703 207.417C221.335 203.845 219.77 200.724 218.56 198.501C217.986 197.469 217.499 196.592 217.102 195.877C216.754 195.259 216.576 194.908 216.609 194.89C216.642 194.873 216.881 195.19 217.288 195.781C217.698 196.369 218.254 197.242 218.905 198.338C220.209 200.529 221.842 203.651 223.221 207.252C224.6 210.852 225.436 214.229 225.879 216.689C226.099 217.92 226.244 218.921 226.307 219.616C226.375 220.311 226.395 220.697 226.358 220.701Z" fill="#263238"/>
<path d="M271.911 231.094C271.928 231.1 271.884 231.266 271.786 231.577C271.664 231.942 271.514 232.389 271.333 232.93C271.136 233.518 270.882 234.232 270.55 235.047C270.223 235.864 269.873 236.805 269.412 237.813C268.543 239.853 267.386 242.229 265.989 244.808C264.567 247.372 262.89 250.131 260.958 252.911C259.008 255.68 256.991 258.201 255.068 260.416C253.124 262.612 251.287 264.513 249.669 266.028C248.88 266.807 248.116 267.457 247.46 268.045C246.808 268.636 246.224 269.12 245.739 269.506C245.293 269.861 244.924 270.155 244.623 270.394C244.364 270.593 244.223 270.69 244.212 270.677C244.201 270.664 244.32 270.539 244.557 270.315C244.841 270.056 245.188 269.739 245.609 269.355C246.073 268.946 246.636 268.442 247.268 267.833C247.903 267.227 248.647 266.561 249.417 265.768C250.997 264.225 252.797 262.308 254.712 260.106C256.605 257.886 258.599 255.37 260.539 252.617C262.461 249.852 264.14 247.118 265.577 244.579C266.989 242.026 268.174 239.678 269.082 237.666C269.562 236.671 269.934 235.744 270.285 234.94C270.641 234.137 270.922 233.436 271.147 232.86C271.364 232.333 271.542 231.898 271.689 231.543C271.818 231.243 271.894 231.088 271.911 231.094Z" fill="#263238"/>
<path d="M288.319 167.183C288.422 167.231 286.991 168.649 286.448 171.639C286.171 173.114 286.165 174.92 286.481 176.888C286.785 178.857 287.379 180.989 287.982 183.229C289.207 187.705 290.505 191.703 291.49 194.581C291.96 195.94 292.354 197.081 292.668 197.987C292.946 198.792 293.086 199.243 293.052 199.257C293.018 199.271 292.812 198.846 292.474 198.063C292.138 197.279 291.673 196.136 291.134 194.71C290.056 191.858 288.696 187.864 287.466 183.372C286.862 181.127 286.278 178.98 285.994 176.962C285.697 174.95 285.743 173.078 286.078 171.566C286.401 170.049 286.974 168.909 287.453 168.196C287.938 167.482 288.299 167.164 288.319 167.183Z" fill="#263238"/>
<path d="M221.298 205.713C221.334 205.753 220.701 206.389 219.405 206.998C218.128 207.608 216.125 208.111 213.941 207.78C211.756 207.447 209.993 206.371 208.955 205.408C207.899 204.441 207.484 203.645 207.531 203.618C207.601 203.563 208.118 204.269 209.194 205.127C210.256 205.984 211.955 206.949 214.019 207.264C216.083 207.577 217.992 207.162 219.261 206.659C220.544 206.16 221.247 205.639 221.298 205.713Z" fill="white"/>
<path d="M289.376 189.2C289.392 189.207 289.289 189.472 289.077 189.969C288.862 190.465 288.519 191.186 288.029 192.091C287.033 193.881 285.415 196.432 282.748 198.998C280.102 201.539 276.287 204.067 271.477 205.132C269.09 205.665 266.48 205.852 263.833 205.46C261.176 205.101 258.559 204.067 256.098 202.711C251.187 199.968 247.042 196.497 242.501 194.839C237.998 193.11 233.47 193.31 229.963 194.148C226.414 195 223.824 196.543 222.173 197.719C220.533 198.935 219.765 199.781 219.719 199.733C219.719 199.733 220.432 198.835 222.051 197.557C223.68 196.32 226.277 194.704 229.873 193.791C233.424 192.894 238.044 192.645 242.668 194.391C247.318 196.066 251.502 199.554 256.347 202.255C258.777 203.593 261.321 204.599 263.905 204.956C266.482 205.344 269.033 205.173 271.372 204.664C276.087 203.647 279.851 201.204 282.494 198.73C285.157 196.234 286.808 193.739 287.851 191.991C288.365 191.108 288.736 190.404 288.98 189.924C289.225 189.443 289.36 189.193 289.376 189.2Z" fill="white"/>
<path d="M311.608 176.375C311.635 176.364 311.823 176.765 312.07 177.526C312.309 178.288 312.567 179.428 312.646 180.863C312.715 182.293 312.615 184.028 312.089 185.862C311.582 187.695 310.67 189.631 309.279 191.346C307.882 193.07 306.186 194.302 304.822 195.561C303.427 196.796 302.374 198.099 301.797 199.372C301.205 200.634 301.071 201.783 301.134 202.555C301.194 203.332 301.359 203.747 301.311 203.763C301.294 203.769 301.244 203.671 301.163 203.475C301.084 203.279 300.989 202.977 300.932 202.576C300.803 201.78 300.885 200.559 301.46 199.222C302.014 197.877 303.098 196.479 304.496 195.208C305.868 193.909 307.536 192.673 308.874 191.017C311.592 187.683 312.357 183.642 312.277 180.876C312.211 178.058 311.495 176.403 311.608 176.375Z" fill="white"/>
<path d="M253.844 260.683C253.852 260.716 253.484 260.852 252.802 261.046C252.12 261.237 251.124 261.496 249.859 261.675C248.602 261.826 247.03 261.94 245.371 261.413C244.548 261.153 243.729 260.707 243.017 260.088C242.309 259.466 241.717 258.712 241.097 257.987C240.482 257.255 239.82 256.631 239.088 256.133C238.353 255.643 237.568 255.288 236.796 255.034C235.243 254.522 233.735 254.482 232.509 254.623C231.275 254.766 230.317 255.126 229.687 255.418C229.051 255.707 228.719 255.917 228.692 255.876C228.678 255.857 228.972 255.589 229.595 255.237C230.212 254.882 231.182 254.455 232.457 254.258C233.724 254.064 235.301 254.065 236.94 254.576C237.756 254.831 238.587 255.194 239.371 255.708C240.149 256.226 240.869 256.904 241.493 257.648C242.123 258.387 242.698 259.121 243.355 259.706C244.011 260.284 244.757 260.702 245.522 260.957C247.061 261.476 248.582 261.413 249.818 261.309C252.305 261.021 253.823 260.585 253.844 260.683Z" fill="white"/>
<path d="M299.83 258.546C299.84 258.561 299.732 258.653 299.514 258.816C299.291 258.971 298.982 259.234 298.528 259.483C297.652 260.032 296.287 260.699 294.486 261.174C292.689 261.617 290.444 261.901 287.996 261.549C285.551 261.254 282.922 260.271 280.62 258.59C278.325 256.901 276.513 254.905 274.721 253.285C272.953 251.638 271.156 250.395 269.484 249.677C267.822 248.936 266.336 248.742 265.325 248.757C264.309 248.774 263.753 248.926 263.742 248.874C263.738 248.857 263.872 248.811 264.136 248.739C264.398 248.662 264.797 248.591 265.317 248.554C266.35 248.475 267.899 248.619 269.627 249.338C271.361 250.029 273.236 251.283 275.042 252.929C276.871 254.549 278.69 256.525 280.926 258.169C283.162 259.799 285.685 260.759 288.062 261.073C290.437 261.441 292.628 261.203 294.397 260.816C296.169 260.397 297.532 259.794 298.427 259.306C299.331 258.828 299.802 258.504 299.83 258.546Z" fill="white"/>
<path d="M384.835 116.061C375.514 111.621 367.449 104.335 362.096 94.6229C355.504 82.6619 353.965 68.8489 357.761 55.7299C361.558 42.6099 370.237 31.7539 382.199 25.1619C406.891 11.5529 438.052 20.5719 451.662 45.2659C458.254 57.2279 459.793 71.0409 455.996 84.1599C452.199 97.2789 443.521 108.135 431.558 114.727C416.577 122.982 399.212 122.91 384.835 116.061ZM427.448 26.9159C414.031 20.5249 397.832 20.4569 383.853 28.1599C372.693 34.3099 364.594 44.4399 361.052 56.6799C357.508 68.9209 358.945 81.8089 365.096 92.9699C371.246 104.132 381.375 112.229 393.617 115.771C405.857 119.314 418.746 117.878 429.907 111.727C441.067 105.577 449.165 95.4479 452.708 83.2069C456.252 70.9659 454.815 58.0779 448.664 46.9169C443.67 37.8579 436.143 31.0579 427.448 26.9159Z" fill="#263238"/>
<path d="M471.11 171.949C468.123 173.791 464.208 172.864 462.365 169.877L428.928 115.694C428.612 115.181 428.771 114.508 429.284 114.192L436.417 109.791C436.918 109.482 437.573 109.626 437.899 110.116L473.067 163.021C475.056 166.015 474.17 170.062 471.11 171.949Z" fill="#263238"/>
<path d="M386.066 113.48C376.745 109.04 368.679 101.754 363.327 92.0419C356.735 80.0809 355.196 66.2679 358.992 53.1479C362.789 40.0279 371.468 29.1719 383.43 22.5799C408.122 8.9709 439.283 17.9899 452.893 42.6839C459.484 54.6459 461.024 68.4589 457.227 81.5779C453.43 94.6969 444.752 105.553 432.789 112.145C417.808 120.402 400.443 120.329 386.066 113.48ZM428.679 24.3359C415.262 17.9449 399.063 17.8769 385.084 25.5799C373.923 31.7299 365.825 41.8599 362.283 54.0999C358.739 66.3409 360.176 79.2289 366.327 90.3899C372.477 101.552 382.606 109.649 394.848 113.191C407.088 116.734 419.977 115.298 431.138 109.147C442.298 102.997 450.396 92.8679 453.939 80.6269C457.483 68.3859 456.046 55.4979 449.895 44.3369C444.902 35.2769 437.374 28.4779 428.679 24.3359Z" fill="#455A64"/>
<path d="M472.483 171.102L471.966 171.421C469.634 172.859 466.578 172.136 465.139 169.804L429.582 112.185L438.541 106.656L474.099 164.276C475.538 166.607 474.814 169.664 472.483 171.102Z" fill="#455A64"/>
<path d="M369.94 55.2188C369.907 55.2118 370.009 54.6518 370.224 53.6398C370.323 53.1318 370.464 52.5148 370.696 51.8168C370.919 51.1168 371.128 50.3028 371.495 49.4508C371.667 49.0178 371.845 48.5668 372.031 48.0988C372.222 47.6308 372.472 47.1668 372.704 46.6738C373.15 45.6768 373.759 44.6838 374.373 43.6228C375.682 41.5508 377.307 39.3868 379.269 37.3438C381.258 35.3258 383.378 33.6418 385.414 32.2778C386.458 31.6348 387.435 30.9988 388.419 30.5258C388.905 30.2808 389.362 30.0178 389.825 29.8138C390.288 29.6158 390.734 29.4248 391.162 29.2418C392.003 28.8518 392.812 28.6208 393.505 28.3798C394.196 28.1288 394.809 27.9708 395.315 27.8588C396.32 27.6168 396.878 27.4988 396.885 27.5318C396.893 27.5648 396.35 27.7448 395.366 28.0418C394.871 28.1818 394.271 28.3648 393.593 28.6388C392.913 28.9038 392.121 29.1538 391.297 29.5608C390.878 29.7508 390.441 29.9498 389.987 30.1558C389.533 30.3658 389.086 30.6348 388.609 30.8848C387.644 31.3678 386.687 32.0098 385.662 32.6538C383.665 34.0218 381.582 35.6938 379.618 37.6858C377.681 39.7018 376.067 41.8298 374.753 43.8628C374.137 44.9048 373.521 45.8788 373.065 46.8558C372.828 47.3388 372.571 47.7938 372.374 48.2528C372.18 48.7118 371.994 49.1538 371.815 49.5788C371.431 50.4138 371.202 51.2128 370.956 51.8988C370.701 52.5838 370.534 53.1888 370.408 53.6868C370.138 54.6788 369.973 55.2258 369.94 55.2188Z" fill="#E0E0E0"/>
</svg>
